<svg id="Layer_1" data-name="Layer 1" xmlns="http://www.w3.org/2000/svg" viewBox="0 0 390.89 53.17"><defs><style>.cls-1{fill:#231f20;}</style></defs><path class="cls-1" d="M180.68,19.72a1.79,1.79,0,0,1,1.76,2.16l-2.35,11.57-1.21,6v0l-2.5,12.29a1.8,1.8,0,0,1-1.76,1.44H160a23.65,23.65,0,0,1-9.95-2.46A27.06,27.06,0,0,1,138,39.44l30,0A1.8,1.8,0,0,0,169.71,38l.48-2.37a1.8,1.8,0,0,0-1.76-2.16H152.1a1.79,1.79,0,0,1-1.76-2.16l2-10.13a1.8,1.8,0,0,1,1.77-1.44Z"/><path class="cls-1" d="M186.45,2.16l-2.06,10.12a1.79,1.79,0,0,1-1.76,1.44H151.92c-.36,0-.71,0-1.06,0a22.84,22.84,0,0,0-7.52,1.45h0a17.66,17.66,0,0,0-10.65,11.39c0-12.78,4.81-19.43,9.62-22.88A20.27,20.27,0,0,1,154.14,0h30.54A1.81,1.81,0,0,1,186.45,2.16Z"/><path class="cls-1" d="M151.29,53.17h-3A26.59,26.59,0,0,1,141,1a30.2,30.2,0,0,0,8.7,51.6C150.2,52.82,150.75,53,151.29,53.17Z"/><path class="cls-1" d="M35.32,11.87c.71,0,1,.38.88,1.09l-1.05,4.92A1.26,1.26,0,0,1,33.8,19H21.19L16.65,40.21a1.22,1.22,0,0,1-1.3,1.09H9.92c-.75,0-1.05-.38-.88-1.09L13.54,19H.89c-.72,0-1-.38-.84-1.1L1.1,13a1.18,1.18,0,0,1,1.3-1.09Z"/><path class="cls-1" d="M63.56,11.87c7,0,10,2,10,7.06,0,1.18-.13,2.53-2,11.27C69.91,38.27,66,41.3,57.34,41.3H44.23c-7,0-10-2-10-7.06,0-1.18.13-2.53,2-11.27,1.68-8.07,5.63-11.1,14.25-11.1ZM42.13,31.92c0,1.94,1,2.48,3.86,2.48H58.52c3.61,0,4.75-1,5.55-4.79,1.51-7,1.6-7.73,1.6-8.36,0-1.94-1.06-2.44-3.83-2.44H49.27c-3.61,0-4.75,1-5.55,4.75C42.21,30.54,42.13,31.29,42.13,31.92Z"/><path class="cls-1" d="M104.31,11.87c5.39,0,7.7,2,7.7,5.85,0,.84-.13,1.8-1.1,6.26-1.26,5.67-4.41,8.7-11,8.7H83.51l-1.6,7.53A1.25,1.25,0,0,1,80.6,41.3H75.14c-.71,0-1-.38-.84-1.09L80,13.13a1.43,1.43,0,0,1,1.55-1.26ZM84.89,26.12H99.77c2.27,0,3.2-1,3.66-2.94a11.53,11.53,0,0,0,.55-2.69c0-1.22-.8-1.77-2.65-1.77H87a.62.62,0,0,0-.68.51Z"/><path class="cls-1" d="M233.46,11.87c.71,0,1,.38.88,1.09l-1.05,4.92A1.24,1.24,0,0,1,232,19H213.28c-3.61,0-4.79,1-5.59,4.75-1.43,6.64-1.51,7.4-1.51,8,0,1.93,1,2.43,3.82,2.43h18.71c.76,0,1,.38.88,1.1l-1.05,4.92a1.21,1.21,0,0,1-1.3,1.09h-19c-7,0-10-2-10-7.06,0-1.18.13-2.53,2-11.27,1.68-8.07,5.63-11.1,14.25-11.1Z"/><path class="cls-1" d="M257.42,11.87c2.53,0,3.83.72,4.8,3.7l7.94,24.59c.17.68,0,1.14-.88,1.14h-6.35c-.63,0-.84-.17-1-.59l-1.51-4.92H242.16l-3.53,4.92a1.41,1.41,0,0,1-1.26.59h-6.56c-.79,0-.84-.46-.37-1.14l18.2-24.59c2.18-2.94,3.87-3.7,5.84-3.7ZM246.37,30h12.27l-3.32-10.8a.34.34,0,0,0-.38-.3h-.25a.54.54,0,0,0-.5.3Z"/><path class="cls-1" d="M303.37,11.87c5.38,0,7.69,2,7.69,5.8a24.62,24.62,0,0,1-.88,5.47c-1.05,4.62-3.32,7.44-7.69,8.36l4.92,8.58a.88.88,0,0,1-.89,1.22h-6.47c-.8,0-1-.21-1.22-.59l-4.41-8.41H282.65L281,40.21a1.23,1.23,0,0,1-1.3,1.09H274.2c-.72,0-1-.38-.84-1.09l5.71-27.08a1.45,1.45,0,0,1,1.56-1.26ZM283.91,26.29h14.88c2.27,0,3.28-.92,3.7-2.9a16.52,16.52,0,0,0,.5-2.86c0-1.26-.71-1.85-2.6-1.85h-14.3a.61.61,0,0,0-.67.55Z"/><path class="cls-1" d="M350.28,11.87c.72,0,1,.38.84,1.09l-1.05,4.92a1.21,1.21,0,0,1-1.3,1.1H327.71c-3.66,0-4.79,1-5.59,4.75-1.43,6.76-1.51,7.52-1.51,8.15,0,1.89,1.05,2.44,3.82,2.44h13.41c1.18,0,1.81-.5,2.1-1.89l.51-2.48c.08-.42-.05-.59-.42-.59H328.8c-.71,0-1-.38-.88-1.09l.8-3.79a1.26,1.26,0,0,1,1.34-1.09h17.53c.84,0,1.18.42,1,1.26l-2.14,10.22c-1,4.7-3.24,6.43-6.64,6.43H322.67c-7,0-10-2-10-7.06,0-1.18.13-2.53,2-11.27,1.72-8.07,5.67-11.1,14.25-11.1Z"/><path class="cls-1" d="M380.89,11.87c7,0,10,2,10,7.06,0,1.18-.12,2.53-2,11.27-1.69,8.07-5.64,11.1-14.26,11.1H361.55c-7,0-10-2-10-7.06,0-1.18.13-2.53,2-11.27,1.68-8.07,5.63-11.1,14.25-11.1ZM359.45,31.92c0,1.94,1.05,2.48,3.86,2.48h12.53c3.62,0,4.75-1,5.55-4.79,1.51-7,1.6-7.73,1.6-8.36,0-1.94-1.05-2.44-3.83-2.44H366.59c-3.61,0-4.75,1-5.55,4.75C359.53,30.54,359.45,31.29,359.45,31.92Z"/></svg>