<?xml version="1.0" encoding="utf-8"?>
<!-- Generator: Adobe Illustrator 26.5.0, SVG Export Plug-In . SVG Version: 6.00 Build 0)  -->
<svg version="1.1" id="Layer_1" xmlns="http://www.w3.org/2000/svg" xmlns:xlink="http://www.w3.org/1999/xlink" x="0px" y="0px"
	 viewBox="0 0 390.89 53.17" style="enable-background:new 0 0 390.89 53.17;" xml:space="preserve">
<style type="text/css">
	.st0{fill:#303841;}
	.st1{fill:#D72527;}
</style>
<g>
	<g>
		<path class="st0" d="M180.68,19.72c1.14,0,1.99,1.04,1.76,2.16l-2.35,11.57l-1.21,5.97l0,0.02l-2.5,12.29
			c-0.17,0.84-0.91,1.44-1.76,1.44h-14.61c-3.11,0-6.6-0.86-9.95-2.46c-4.82-2.31-9.36-6.17-12.11-11.27l30-0.02
			c0.86,0,1.59-0.6,1.76-1.44l0.48-2.37c0.23-1.12-0.63-2.16-1.76-2.16H152.1c-1.14,0-1.99-1.04-1.76-2.16l2.06-10.13
			c0.17-0.84,0.91-1.44,1.76-1.44H180.68z"/>
		<path class="st1" d="M186.45,2.16l-2.06,10.13c-0.17,0.84-0.91,1.44-1.76,1.44h-30.71c-0.36,0-0.71,0.01-1.06,0.02
			c-2.94,0.1-5.42,0.64-7.52,1.45c0,0,0,0-0.01,0c-8.75,3.38-10.65,11.38-10.65,11.38c0-12.78,4.81-19.42,9.62-22.88
			C145.74,1.24,149.91,0,154.14,0h30.54C185.82,0,186.67,1.04,186.45,2.16z"/>
		<path class="st1" d="M151.29,53.17h-2.99c-7.34,0-13.99-2.98-18.8-7.79c-4.81-4.81-7.79-11.46-7.79-18.8
			c0-12.14,8.14-22.38,19.25-25.56c-6.71,5.54-10.98,13.92-10.98,23.29c0,8.34,3.38,15.88,8.84,21.35
			c3.04,3.04,6.73,5.44,10.84,6.96C150.2,52.82,150.75,53,151.29,53.17z"/>
	</g>
	<g>
		<path class="st0" d="M35.32,11.87c0.71,0,1.01,0.38,0.88,1.09l-1.05,4.92c-0.17,0.71-0.59,1.09-1.35,1.09H21.19l-4.54,21.23
			c-0.13,0.71-0.59,1.09-1.3,1.09H9.92c-0.76,0-1.05-0.38-0.88-1.09l4.5-21.23H0.89c-0.71,0-1.01-0.38-0.84-1.09l1.05-4.92
			c0.13-0.71,0.55-1.09,1.3-1.09H35.32z"/>
		<path class="st0" d="M63.56,11.87c6.98,0,10,2.02,10,7.06c0,1.18-0.13,2.52-1.98,11.27c-1.68,8.07-5.63,11.1-14.25,11.1H44.23
			c-6.98,0-10-2.02-10-7.06c0-1.18,0.13-2.52,1.98-11.27c1.68-8.07,5.63-11.1,14.25-11.1H63.56z M42.13,31.92
			c0,1.93,1.05,2.48,3.87,2.48h12.53c3.61,0,4.75-1.01,5.55-4.79c1.51-6.98,1.6-7.73,1.6-8.37c0-1.93-1.05-2.44-3.83-2.44H49.27
			c-3.61,0-4.75,0.97-5.55,4.75C42.21,30.54,42.13,31.29,42.13,31.92z"/>
		<path class="st0" d="M104.31,11.87c5.38,0,7.69,2.02,7.69,5.84c0,0.84-0.13,1.81-1.09,6.26c-1.26,5.68-4.41,8.7-11.01,8.7H83.51
			l-1.6,7.52c-0.17,0.71-0.59,1.09-1.3,1.09h-5.46c-0.71,0-1.01-0.38-0.84-1.09l5.72-27.07c0.17-0.84,0.71-1.26,1.56-1.26H104.31z
			 M84.89,26.12h14.88c2.27,0,3.19-0.97,3.66-2.94c0.5-1.98,0.55-2.35,0.55-2.69c0-1.22-0.8-1.77-2.65-1.77H87.04
			c-0.38,0-0.59,0.17-0.67,0.5L84.89,26.12z"/>
	</g>
	<g>
		<path class="st0" d="M233.46,11.87c0.71,0,1.05,0.38,0.88,1.09l-1.05,4.92c-0.17,0.71-0.59,1.09-1.3,1.09h-18.71
			c-3.62,0-4.79,0.97-5.59,4.75c-1.43,6.64-1.51,7.4-1.51,8.03c0,1.93,1.05,2.44,3.83,2.44h18.71c0.76,0,1.05,0.38,0.88,1.09
			l-1.05,4.92c-0.13,0.71-0.59,1.09-1.3,1.09h-19c-6.98,0-10-2.02-10-7.06c0-1.18,0.13-2.52,1.98-11.27
			c1.68-8.07,5.63-11.1,14.25-11.1H233.46z"/>
		<path class="st0" d="M257.42,11.87c2.52,0,3.83,0.71,4.79,3.7l7.95,24.59c0.17,0.67-0.04,1.14-0.88,1.14h-6.35
			c-0.63,0-0.84-0.17-0.97-0.59l-1.51-4.92h-18.29l-3.53,4.92c-0.34,0.42-0.67,0.59-1.26,0.59h-6.56c-0.8,0-0.84-0.46-0.38-1.14
			l18.2-24.59c2.19-2.94,3.87-3.7,5.84-3.7H257.42z M246.37,30.03h12.27l-3.32-10.8c-0.04-0.21-0.17-0.29-0.38-0.29h-0.25
			c-0.21,0-0.38,0.08-0.5,0.29L246.37,30.03z"/>
		<path class="st0" d="M303.37,11.87c5.38,0,7.69,1.98,7.69,5.8c0,0.88-0.08,1.85-0.88,5.46c-1.05,4.62-3.32,7.44-7.69,8.37
			l4.92,8.58c0.21,0.38,0,1.22-0.88,1.22h-6.47c-0.8,0-1.01-0.21-1.22-0.59l-4.41-8.41h-11.77l-1.68,7.9
			c-0.17,0.71-0.59,1.09-1.3,1.09h-5.46c-0.71,0-1.01-0.38-0.84-1.09l5.72-27.07c0.17-0.84,0.71-1.26,1.56-1.26H303.37z
			 M283.91,26.29h14.88c2.27,0,3.28-0.93,3.7-2.9c0.46-2.19,0.5-2.56,0.5-2.86c0-1.26-0.71-1.85-2.61-1.85h-14.29
			c-0.38,0-0.59,0.17-0.67,0.55L283.91,26.29z"/>
		<path class="st0" d="M350.28,11.87c0.71,0,1.01,0.38,0.84,1.09l-1.05,4.92c-0.13,0.71-0.59,1.09-1.3,1.09h-21.06
			c-3.66,0-4.79,0.97-5.59,4.75c-1.43,6.77-1.51,7.52-1.51,8.15c0,1.89,1.05,2.44,3.83,2.44h13.41c1.18,0,1.81-0.5,2.1-1.89
			l0.5-2.48c0.08-0.42-0.04-0.59-0.42-0.59H328.8c-0.71,0-1.01-0.38-0.88-1.09l0.8-3.78c0.17-0.71,0.59-1.09,1.34-1.09h17.53
			c0.84,0,1.18,0.42,1.01,1.26l-2.14,10.22c-1.01,4.71-3.24,6.43-6.64,6.43h-17.15c-6.98,0-10-2.02-10-7.06
			c0-1.18,0.13-2.52,1.98-11.27c1.72-8.07,5.68-11.1,14.25-11.1H350.28z"/>
		<path class="st0" d="M380.89,11.87c6.98,0,10,2.02,10,7.06c0,1.18-0.13,2.52-1.98,11.27c-1.68,8.07-5.63,11.1-14.25,11.1h-13.12
			c-6.98,0-10-2.02-10-7.06c0-1.18,0.13-2.52,1.98-11.27c1.68-8.07,5.63-11.1,14.25-11.1H380.89z M359.45,31.92
			c0,1.93,1.05,2.48,3.87,2.48h12.53c3.62,0,4.75-1.01,5.55-4.79c1.51-6.98,1.6-7.73,1.6-8.37c0-1.93-1.05-2.44-3.83-2.44h-12.57
			c-3.62,0-4.75,0.97-5.55,4.75C359.53,30.54,359.45,31.29,359.45,31.92z"/>
	</g>
</g>
</svg>
